<mxfile host="app.diagrams.net" modified="2022-03-16T13:49:18.789Z" agent="5.0 (Windows NT 10.0; Win64; x64) AppleWebKit/537.36 (KHTML, like Gecko) Chrome/99.0.4844.51 Safari/537.36" etag="QPejxy55ugNQaYV1Alvy" version="17.1.3" type="github">
  <diagram id="KNh7PlUn3Hc4PS2WS_Q5" name="Page-1">
    <mxGraphModel dx="868" dy="482" grid="1" gridSize="10" guides="1" tooltips="1" connect="1" arrows="1" fold="1" page="1" pageScale="1" pageWidth="827" pageHeight="1169" math="0" shadow="0">
      <root>
        <mxCell id="0" />
        <mxCell id="1" parent="0" />
        <mxCell id="pTnItQEde4Du_r_NqiRA-2" value="FIM" style="rounded=1;whiteSpace=wrap;html=1;" vertex="1" parent="1">
          <mxGeometry x="50" y="450" width="120" height="60" as="geometry" />
        </mxCell>
        <mxCell id="pTnItQEde4Du_r_NqiRA-13" style="edgeStyle=orthogonalEdgeStyle;rounded=0;orthogonalLoop=1;jettySize=auto;html=1;exitX=0;exitY=0.5;exitDx=0;exitDy=0;" edge="1" parent="1" source="pTnItQEde4Du_r_NqiRA-3">
          <mxGeometry relative="1" as="geometry">
            <mxPoint x="120" y="440" as="targetPoint" />
            <Array as="points">
              <mxPoint x="120" y="400" />
            </Array>
          </mxGeometry>
        </mxCell>
        <mxCell id="pTnItQEde4Du_r_NqiRA-3" value="SAÍDA&lt;br&gt;SOMA" style="shape=document;whiteSpace=wrap;html=1;boundedLbl=1;" vertex="1" parent="1">
          <mxGeometry x="220" y="360" width="120" height="80" as="geometry" />
        </mxCell>
        <mxCell id="pTnItQEde4Du_r_NqiRA-15" style="edgeStyle=orthogonalEdgeStyle;rounded=0;orthogonalLoop=1;jettySize=auto;html=1;exitX=1;exitY=0.5;exitDx=0;exitDy=0;entryX=0.5;entryY=0;entryDx=0;entryDy=0;" edge="1" parent="1" source="pTnItQEde4Du_r_NqiRA-4" target="pTnItQEde4Du_r_NqiRA-8">
          <mxGeometry relative="1" as="geometry" />
        </mxCell>
        <mxCell id="pTnItQEde4Du_r_NqiRA-4" value="ENTRADA&lt;br&gt;NUMERO X, NUMERO Y" style="shape=parallelogram;perimeter=parallelogramPerimeter;whiteSpace=wrap;html=1;fixedSize=1;" vertex="1" parent="1">
          <mxGeometry x="220" y="140" width="180" height="60" as="geometry" />
        </mxCell>
        <mxCell id="pTnItQEde4Du_r_NqiRA-9" style="edgeStyle=orthogonalEdgeStyle;rounded=0;orthogonalLoop=1;jettySize=auto;html=1;exitX=0.5;exitY=1;exitDx=0;exitDy=0;entryX=0.75;entryY=0;entryDx=0;entryDy=0;" edge="1" parent="1" source="pTnItQEde4Du_r_NqiRA-6" target="pTnItQEde4Du_r_NqiRA-4">
          <mxGeometry relative="1" as="geometry">
            <mxPoint x="140" y="240" as="targetPoint" />
          </mxGeometry>
        </mxCell>
        <mxCell id="pTnItQEde4Du_r_NqiRA-6" value="INICIO" style="rounded=1;whiteSpace=wrap;html=1;" vertex="1" parent="1">
          <mxGeometry x="190" y="20" width="120" height="60" as="geometry" />
        </mxCell>
        <mxCell id="pTnItQEde4Du_r_NqiRA-12" style="edgeStyle=orthogonalEdgeStyle;rounded=0;orthogonalLoop=1;jettySize=auto;html=1;" edge="1" parent="1" source="pTnItQEde4Du_r_NqiRA-8">
          <mxGeometry relative="1" as="geometry">
            <mxPoint x="280" y="350" as="targetPoint" />
          </mxGeometry>
        </mxCell>
        <mxCell id="pTnItQEde4Du_r_NqiRA-8" value="PROCESSAMENTO&lt;br&gt;SOMA = NUMERO X + NUMERO Y" style="rounded=0;whiteSpace=wrap;html=1;" vertex="1" parent="1">
          <mxGeometry x="360" y="270" width="210" height="70" as="geometry" />
        </mxCell>
        <mxCell id="pTnItQEde4Du_r_NqiRA-18" style="edgeStyle=orthogonalEdgeStyle;rounded=0;orthogonalLoop=1;jettySize=auto;html=1;exitX=1;exitY=0.5;exitDx=0;exitDy=0;entryX=0;entryY=0.5;entryDx=0;entryDy=0;" edge="1" parent="1" source="pTnItQEde4Du_r_NqiRA-16" target="pTnItQEde4Du_r_NqiRA-17">
          <mxGeometry relative="1" as="geometry" />
        </mxCell>
        <mxCell id="pTnItQEde4Du_r_NqiRA-16" value="INICIO" style="rounded=1;whiteSpace=wrap;html=1;" vertex="1" parent="1">
          <mxGeometry x="60" y="760" width="120" height="60" as="geometry" />
        </mxCell>
        <mxCell id="pTnItQEde4Du_r_NqiRA-20" style="edgeStyle=orthogonalEdgeStyle;rounded=0;orthogonalLoop=1;jettySize=auto;html=1;exitX=0.5;exitY=1;exitDx=0;exitDy=0;entryX=0.5;entryY=0;entryDx=0;entryDy=0;" edge="1" parent="1" source="pTnItQEde4Du_r_NqiRA-17" target="pTnItQEde4Du_r_NqiRA-19">
          <mxGeometry relative="1" as="geometry" />
        </mxCell>
        <mxCell id="pTnItQEde4Du_r_NqiRA-17" value="ENTRADA&lt;br&gt;NUMERO X, NUMERO Y" style="shape=parallelogram;perimeter=parallelogramPerimeter;whiteSpace=wrap;html=1;fixedSize=1;" vertex="1" parent="1">
          <mxGeometry x="294" y="780" width="196" height="60" as="geometry" />
        </mxCell>
        <mxCell id="pTnItQEde4Du_r_NqiRA-24" style="edgeStyle=orthogonalEdgeStyle;rounded=0;orthogonalLoop=1;jettySize=auto;html=1;entryX=1;entryY=0.5;entryDx=0;entryDy=0;" edge="1" parent="1" source="pTnItQEde4Du_r_NqiRA-19" target="pTnItQEde4Du_r_NqiRA-21">
          <mxGeometry relative="1" as="geometry" />
        </mxCell>
        <mxCell id="pTnItQEde4Du_r_NqiRA-25" style="edgeStyle=orthogonalEdgeStyle;rounded=0;orthogonalLoop=1;jettySize=auto;html=1;exitX=1;exitY=0.5;exitDx=0;exitDy=0;entryX=0;entryY=0.5;entryDx=0;entryDy=0;" edge="1" parent="1" source="pTnItQEde4Du_r_NqiRA-19" target="pTnItQEde4Du_r_NqiRA-22">
          <mxGeometry relative="1" as="geometry" />
        </mxCell>
        <mxCell id="pTnItQEde4Du_r_NqiRA-26" style="edgeStyle=orthogonalEdgeStyle;rounded=0;orthogonalLoop=1;jettySize=auto;html=1;exitX=0.5;exitY=1;exitDx=0;exitDy=0;entryX=0.5;entryY=0;entryDx=0;entryDy=0;" edge="1" parent="1" source="pTnItQEde4Du_r_NqiRA-19" target="pTnItQEde4Du_r_NqiRA-23">
          <mxGeometry relative="1" as="geometry" />
        </mxCell>
        <mxCell id="pTnItQEde4Du_r_NqiRA-19" value="DECISÃO&lt;br&gt;X&amp;gt;Y, X&amp;lt;Y, X=Y" style="rhombus;whiteSpace=wrap;html=1;" vertex="1" parent="1">
          <mxGeometry x="290" y="890" width="160" height="140" as="geometry" />
        </mxCell>
        <mxCell id="pTnItQEde4Du_r_NqiRA-32" style="edgeStyle=orthogonalEdgeStyle;rounded=0;orthogonalLoop=1;jettySize=auto;html=1;exitX=0.5;exitY=1;exitDx=0;exitDy=0;entryX=0.5;entryY=0;entryDx=0;entryDy=0;" edge="1" parent="1" source="pTnItQEde4Du_r_NqiRA-21" target="pTnItQEde4Du_r_NqiRA-27">
          <mxGeometry relative="1" as="geometry" />
        </mxCell>
        <mxCell id="pTnItQEde4Du_r_NqiRA-21" value="SE X FOR MAIOR QUE Y" style="rounded=0;whiteSpace=wrap;html=1;" vertex="1" parent="1">
          <mxGeometry x="110" y="930" width="120" height="60" as="geometry" />
        </mxCell>
        <mxCell id="pTnItQEde4Du_r_NqiRA-31" style="edgeStyle=orthogonalEdgeStyle;rounded=0;orthogonalLoop=1;jettySize=auto;html=1;exitX=0.5;exitY=1;exitDx=0;exitDy=0;entryX=0;entryY=0.5;entryDx=0;entryDy=0;" edge="1" parent="1" source="pTnItQEde4Du_r_NqiRA-22" target="pTnItQEde4Du_r_NqiRA-28">
          <mxGeometry relative="1" as="geometry" />
        </mxCell>
        <mxCell id="pTnItQEde4Du_r_NqiRA-22" value="SE Y FOR MAIOR QUE X" style="rounded=0;whiteSpace=wrap;html=1;" vertex="1" parent="1">
          <mxGeometry x="510" y="930" width="120" height="60" as="geometry" />
        </mxCell>
        <mxCell id="pTnItQEde4Du_r_NqiRA-30" style="edgeStyle=orthogonalEdgeStyle;rounded=0;orthogonalLoop=1;jettySize=auto;html=1;exitX=1;exitY=0.5;exitDx=0;exitDy=0;entryX=0;entryY=0.5;entryDx=0;entryDy=0;" edge="1" parent="1" source="pTnItQEde4Du_r_NqiRA-23" target="pTnItQEde4Du_r_NqiRA-29">
          <mxGeometry relative="1" as="geometry" />
        </mxCell>
        <mxCell id="pTnItQEde4Du_r_NqiRA-23" value="SE X E Y FOREM IGUAIS" style="rounded=0;whiteSpace=wrap;html=1;" vertex="1" parent="1">
          <mxGeometry x="310" y="1070" width="120" height="60" as="geometry" />
        </mxCell>
        <mxCell id="pTnItQEde4Du_r_NqiRA-34" style="edgeStyle=orthogonalEdgeStyle;rounded=0;orthogonalLoop=1;jettySize=auto;html=1;exitX=1;exitY=0.75;exitDx=0;exitDy=0;entryX=1;entryY=0.5;entryDx=0;entryDy=0;" edge="1" parent="1" source="pTnItQEde4Du_r_NqiRA-27" target="pTnItQEde4Du_r_NqiRA-33">
          <mxGeometry relative="1" as="geometry" />
        </mxCell>
        <mxCell id="pTnItQEde4Du_r_NqiRA-27" value="MOSTRAR X" style="shape=document;whiteSpace=wrap;html=1;boundedLbl=1;" vertex="1" parent="1">
          <mxGeometry x="110" y="1030" width="120" height="80" as="geometry" />
        </mxCell>
        <mxCell id="pTnItQEde4Du_r_NqiRA-36" style="edgeStyle=orthogonalEdgeStyle;rounded=0;orthogonalLoop=1;jettySize=auto;html=1;exitX=0;exitY=0.75;exitDx=0;exitDy=0;entryX=1;entryY=0.5;entryDx=0;entryDy=0;" edge="1" parent="1" source="pTnItQEde4Du_r_NqiRA-28" target="pTnItQEde4Du_r_NqiRA-33">
          <mxGeometry relative="1" as="geometry">
            <Array as="points">
              <mxPoint x="610" y="1210" />
              <mxPoint x="370" y="1210" />
              <mxPoint x="370" y="1140" />
            </Array>
          </mxGeometry>
        </mxCell>
        <mxCell id="pTnItQEde4Du_r_NqiRA-28" value="MOSTRAR Y" style="shape=document;whiteSpace=wrap;html=1;boundedLbl=1;" vertex="1" parent="1">
          <mxGeometry x="610" y="1000" width="120" height="80" as="geometry" />
        </mxCell>
        <mxCell id="pTnItQEde4Du_r_NqiRA-35" style="edgeStyle=orthogonalEdgeStyle;rounded=0;orthogonalLoop=1;jettySize=auto;html=1;exitX=0;exitY=0.75;exitDx=0;exitDy=0;entryX=1;entryY=0.5;entryDx=0;entryDy=0;" edge="1" parent="1" source="pTnItQEde4Du_r_NqiRA-29" target="pTnItQEde4Du_r_NqiRA-33">
          <mxGeometry relative="1" as="geometry">
            <Array as="points">
              <mxPoint x="470" y="1160" />
              <mxPoint x="300" y="1160" />
              <mxPoint x="300" y="1140" />
            </Array>
          </mxGeometry>
        </mxCell>
        <mxCell id="pTnItQEde4Du_r_NqiRA-29" value="MOSTRAR IGUAIS" style="shape=document;whiteSpace=wrap;html=1;boundedLbl=1;" vertex="1" parent="1">
          <mxGeometry x="480" y="1070" width="120" height="80" as="geometry" />
        </mxCell>
        <mxCell id="pTnItQEde4Du_r_NqiRA-33" value="FIM" style="rounded=1;whiteSpace=wrap;html=1;" vertex="1" parent="1">
          <mxGeometry x="10" y="1110" width="120" height="60" as="geometry" />
        </mxCell>
      </root>
    </mxGraphModel>
  </diagram>
</mxfile>
